<?xml version="1.0" encoding="UTF-8"?>
<svg version="1.1" xmlns="http://www.w3.org/2000/svg" width="1024" height="1024">
<path d="M0 0 C2.28887586 1.87484597 2.28887586 1.87484597 5.2109375 3.76171875 C6.16158729 4.77246709 7.07606496 5.81791203 7.9609375 6.88671875 C8.48042969 7.50546875 8.99992187 8.12421875 9.53515625 8.76171875 C10.08816406 9.42171875 10.64117188 10.08171875 11.2109375 10.76171875 C12.39394374 12.14058694 13.58148147 13.51557978 14.7734375 14.88671875 C15.31097656 15.50804687 15.84851563 16.129375 16.40234375 16.76953125 C17.75907441 18.26398619 19.1747936 19.70523373 20.6171875 21.1171875 C23.35403249 23.90761529 25.76738829 26.85909227 28.1484375 29.94921875 C28.6137085 30.54726318 29.07897949 31.14530762 29.55834961 31.76147461 C30.57127529 33.0641399 31.5826933 34.36797861 32.59277344 35.67285156 C34.28669494 37.85951306 35.9864632 40.04152605 37.6875 42.22265625 C46.54081661 53.5790238 55.33779197 64.97660817 64.05029297 76.44140625 C66.79393325 80.04766185 69.54657289 83.64701429 72.29833984 87.24707031 C74.05964248 89.56279882 75.80360438 91.89043512 77.54296875 94.22265625 C78.5152367 95.5068045 79.48786456 96.79068037 80.4609375 98.07421875 C80.89011475 98.66066162 81.31929199 99.24710449 81.76147461 99.85131836 C83.07253738 101.62399118 83.07253738 101.62399118 85.2109375 103.76171875 C89.19059257 104.23024601 89.19059257 104.23024601 91.1484375 101.84765625 C91.8290625 100.95304688 92.5096875 100.0584375 93.2109375 99.13671875 C94.39042969 97.62851562 94.39042969 97.62851562 95.59375 96.08984375 C96.0155957 95.54779297 96.43744141 95.00574219 96.87207031 94.44726562 C99.19441503 91.52358438 101.64358557 88.71019703 104.0859375 85.88671875 C105.11496242 84.69173259 106.14360712 83.4964189 107.171875 82.30078125 C107.67944336 81.71071289 108.18701172 81.12064453 108.70996094 80.51269531 C111.05753748 77.77411057 113.38476076 75.01848207 115.7109375 72.26171875 C119.56133949 67.69858869 123.44137679 63.16219706 127.3359375 58.63671875 C130.82913232 54.57547065 134.27542301 50.48653096 137.6484375 46.32421875 C142.80280542 39.97894994 148.18456515 33.83662427 153.55126953 27.67138672 C165.92709712 13.46367697 165.92709712 13.46367697 177.734375 -1.21484375 C180.11989051 -4.26541207 181.38730166 -5.65695845 185.2109375 -6.23828125 C187.82990769 -6.32144303 190.42095503 -6.35462577 193.0390625 -6.3359375 C193.78806824 -6.33452255 194.53707397 -6.3331076 195.30877686 -6.33164978 C197.69287162 -6.32606784 200.07687128 -6.3135187 202.4609375 -6.30078125 C204.08072781 -6.29576391 205.70051959 -6.29120141 207.3203125 -6.28710938 C211.28389062 -6.27610433 215.24739795 -6.25885216 219.2109375 -6.23828125 C219.2109375 -3.23828125 219.2109375 -3.23828125 217.92578125 -1.6953125 C217.33925781 -1.15261719 216.75273438 -0.60992187 216.1484375 -0.05078125 C212.92931178 3.03287024 209.98401302 6.24285844 207.07421875 9.6171875 C205.08817122 11.90301579 203.0594299 14.14529288 201.0234375 16.38671875 C196.83701831 21.02168286 192.77888248 25.75651019 188.73046875 30.51147461 C185.56113177 34.22163515 182.32770226 37.85762662 179.0234375 41.44921875 C175.83356906 44.92308184 172.79044856 48.460819 169.8359375 52.13671875 C165.96810204 56.9339281 161.85984255 61.43376082 157.65063477 65.92749023 C154.55342904 69.2529163 151.61486683 72.6487355 148.7734375 76.19921875 C144.19179348 81.90749654 139.22291314 87.20467913 134.21875 92.5390625 C131.36923311 95.57907389 128.60559683 98.68243694 125.88671875 101.83984375 C123.84456328 104.18189618 121.74434823 106.4676871 119.6484375 108.76171875 C116.29002061 112.46400085 113.25064641 116.25718112 110.40234375 120.36328125 C110.00917969 120.82476562 109.61601563 121.28625 109.2109375 121.76171875 C108.5509375 121.76171875 107.8909375 121.76171875 107.2109375 121.76171875 C105.750309 124.40910791 105.2109375 125.65620209 105.2109375 128.76171875 C106.33717647 130.40626137 106.33717647 130.40626137 107.9609375 132.07421875 C110.84507785 135.24328426 113.66518577 138.44960255 116.43725586 141.71630859 C120.82689273 146.88877928 125.28043027 151.97937113 129.8984375 156.94921875 C133.37735698 160.70305285 136.69329197 164.52175163 139.8984375 168.51171875 C143.11197475 172.50723576 146.49640069 176.10171989 150.17578125 179.6640625 C153.37702226 182.96361417 156.17435347 186.57818958 159.05078125 190.16015625 C161.4040652 192.99431015 163.91049251 195.55117873 166.55078125 198.11328125 C170.60030927 202.13422437 174.20717361 206.57903527 177.8984375 210.92578125 C183.4921707 217.50124521 189.17149926 223.96282589 195.0546875 230.28125 C198.26562886 233.73003887 201.40760626 237.22395704 204.48828125 240.7890625 C207.3425048 244.05750443 210.27343353 247.2569067 213.1953125 250.46484375 C218.2109375 256.1803234 218.2109375 256.1803234 218.2109375 258.76171875 C213.3914998 258.98592321 208.57515665 259.14827682 203.75170898 259.25610352 C202.11510296 259.30108559 200.47885296 259.36229941 198.84350586 259.44067383 C185.31846632 260.07214501 185.31846632 260.07214501 180.23193359 256.90942383 C177.94874583 254.65094589 176.06818555 252.37681413 174.2109375 249.76171875 C172.95796875 248.30958984 172.95796875 248.30958984 171.6796875 246.828125 C171.03 246.00183594 170.3803125 245.17554688 169.7109375 244.32421875 C166.80799681 240.70058271 163.84127172 237.19095641 160.7109375 233.76171875 C157.63440078 230.38710927 154.69975533 226.94356011 151.8359375 223.38671875 C148.59141233 219.37345591 145.22346567 215.53756491 141.7109375 211.76171875 C137.50070608 207.2318055 133.53455904 202.55879711 129.65625 197.7421875 C126.74090406 194.18881856 123.73293755 190.72437282 120.7109375 187.26171875 C116.88767577 182.87968109 113.11939049 178.47111781 109.4609375 173.94921875 C105.925056 169.57946391 102.21554169 165.41203614 98.421875 161.265625 C95.39418476 157.83673906 92.61045325 154.23583034 89.83984375 150.59765625 C89.30230469 149.99179687 88.76476562 149.3859375 88.2109375 148.76171875 C87.5509375 148.76171875 86.8909375 148.76171875 86.2109375 148.76171875 C84.92637315 150.15874897 84.92637315 150.15874897 83.6640625 152.03125 C83.15601074 152.74563232 82.64795898 153.46001465 82.12451172 154.19604492 C81.57553223 154.98084229 81.02655273 155.76563965 80.4609375 156.57421875 C79.28217338 158.23372919 78.10245436 159.89256169 76.921875 161.55078125 C76.00486816 162.84290527 76.00486816 162.84290527 75.06933594 164.16113281 C72.11897505 168.28977761 69.1039286 172.3698827 66.0859375 176.44921875 C64.9087229 178.0428718 63.73163777 179.63662048 62.5546875 181.23046875 C61.99007813 181.99488281 61.42546875 182.75929688 60.84375 183.546875 C58.86570269 186.23001573 56.89715121 188.92000028 54.92993164 191.61108398 C49.22526518 199.41316097 43.45721822 207.16615508 37.63232422 214.87890625 C36.7209811 216.08609933 35.81102348 217.29434034 34.90283203 218.50390625 C9.26137481 252.62576732 -20.84638524 278.96236322 -61.7890625 292.76171875 C-62.91570312 293.14199219 -64.04234375 293.52226563 -65.203125 293.9140625 C-103.24676438 305.71917308 -144.19142706 301.01426158 -181.01025391 287.75146484 C-183.01603205 287.03705397 -185.04263168 286.38019769 -187.07958984 285.76025391 C-189.7890625 284.76171875 -189.7890625 284.76171875 -190.7890625 282.76171875 C-192.45143313 281.89896943 -194.14589462 281.09785277 -195.8515625 280.32421875 C-208.14837396 274.31504986 -218.87230714 266.14049461 -228.7890625 256.76171875 C-230.13896096 255.61086014 -231.49296871 254.46479944 -232.8515625 253.32421875 C-261.76942591 227.93433468 -280.12177192 187.78496683 -283.7890625 149.76171875 C-283.93597619 146.95261313 -283.97522248 144.14855869 -283.9921875 141.3359375 C-283.99924713 140.55498718 -284.00630676 139.77403687 -284.01358032 138.96942139 C-284.24126923 106.39656177 -284.24126923 106.39656177 -280.7890625 92.76171875 C-280.57975098 91.91947754 -280.37043945 91.07723633 -280.15478516 90.20947266 C-268.27765137 43.56671585 -240.74850123 5.38307043 -199.6015625 -19.86328125 C-134.22396592 -58.60268152 -57.48080316 -46.12955211 0 0 Z M-201.7890625 4.76171875 C-202.99175781 5.68017578 -202.99175781 5.68017578 -204.21875 6.6171875 C-208.91540211 10.2823319 -213.45254611 14.12790901 -217.9140625 18.07421875 C-218.84476563 18.89535156 -219.77546875 19.71648437 -220.734375 20.5625 C-223.13040655 22.62545676 -223.13040655 22.62545676 -222.7890625 25.76171875 C-223.35496094 25.98988281 -223.92085938 26.21804688 -224.50390625 26.453125 C-241.97941261 36.46046625 -253.30495739 67.19904151 -258.37304688 85.55297852 C-269.63159022 128.55435934 -265.25496882 170.89319315 -242.97460938 209.62866211 C-236.83192027 219.9339847 -226.12927038 237.25200817 -214.7890625 241.76171875 C-214.7890625 242.42171875 -214.7890625 243.08171875 -214.7890625 243.76171875 C-212.92991623 245.39874116 -211.07648738 246.90001205 -209.1015625 248.38671875 C-208.51286377 248.83257324 -207.92416504 249.27842773 -207.31762695 249.73779297 C-173.54371763 274.93441569 -132.86715097 284.75804255 -91.22363281 279.10400391 C-83.19243918 277.92451397 -75.52219505 276.27948283 -67.7890625 273.76171875 C-66.84571045 273.45476074 -66.84571045 273.45476074 -65.88330078 273.14160156 C-50.59212883 268.05847409 -36.45565045 260.75424924 -23.7890625 250.76171875 C-22.99757813 250.17261719 -22.20609375 249.58351563 -21.390625 248.9765625 C-8.08461262 238.83557248 2.14634907 226.77242087 11.60205078 213.07617188 C14.25095361 209.26561059 16.98456572 205.51702586 19.7109375 201.76171875 C20.79335508 200.26329983 21.87538612 198.76460162 22.95703125 197.265625 C25.13422773 194.25079356 27.31416667 191.23797181 29.49609375 188.2265625 C35.27804075 180.24196902 41.01553855 172.22963555 46.68505859 164.16479492 C50.38053846 158.91604537 54.13016328 153.70839224 57.8984375 148.51171875 C63.10515374 141.33009465 68.20419433 134.08424236 73.2109375 126.76171875 C69.522692 120.95947887 65.51389078 115.47047143 61.29833984 110.04077148 C57.98090872 105.76758395 54.70594324 101.46517741 51.4609375 97.13671875 C50.71094482 96.13632568 50.71094482 96.13632568 49.94580078 95.11572266 C46.0875029 89.95712117 42.27239749 84.76746719 38.4609375 79.57421875 C32.78875977 71.84788661 27.01229453 64.2066215 21.1706543 56.60766602 C17.93625032 52.3887935 14.75030088 48.15129326 11.68359375 43.80859375 C-13.63090333 8.05389938 -48.57260196 -14.89814466 -91.8203125 -22.32421875 C-99.1943109 -23.42189925 -106.46837094 -23.58411809 -113.9140625 -23.55078125 C-114.93235641 -23.54655151 -114.93235641 -23.54655151 -115.97122192 -23.54223633 C-146.88397334 -23.35009374 -177.12821346 -14.46313668 -201.7890625 4.76171875 Z " fill="#1E1E1D" transform="translate(542.7890625,278.23828125)"/>
<path d="M0 0 C0.79622772 0.00141495 1.59245544 0.0028299 2.41281128 0.00428772 C4.9601413 0.0098928 7.50738397 0.02244611 10.0546875 0.03515625 C11.77994665 0.0401706 13.50520717 0.04473362 15.23046875 0.04882812 C19.46357541 0.05986388 23.69661664 0.07713189 27.9296875 0.09765625 C27.9296875 3.09765625 27.9296875 3.09765625 26.64453125 4.640625 C25.76474609 5.45466797 25.76474609 5.45466797 24.8671875 6.28515625 C21.64806178 9.36880774 18.70276302 12.57879594 15.79296875 15.953125 C13.80692122 18.23895329 11.7781799 20.48123038 9.7421875 22.72265625 C5.55576831 27.35762036 1.49763248 32.09244769 -2.55078125 36.84741211 C-5.72011823 40.55757265 -8.95354774 44.19356412 -12.2578125 47.78515625 C-15.44768094 51.25901934 -18.49080144 54.7967565 -21.4453125 58.47265625 C-25.31314796 63.2698656 -29.42140745 67.76969832 -33.63061523 72.26342773 C-36.72782096 75.5888538 -39.66638317 78.984673 -42.5078125 82.53515625 C-47.08945652 88.24343404 -52.05833686 93.54061663 -57.0625 98.875 C-59.91201689 101.91501139 -62.67565317 105.01837444 -65.39453125 108.17578125 C-67.43668672 110.51783368 -69.53690177 112.8036246 -71.6328125 115.09765625 C-74.99122939 118.79993835 -78.03060359 122.59311862 -80.87890625 126.69921875 C-81.27207031 127.16070312 -81.66523437 127.6221875 -82.0703125 128.09765625 C-82.7303125 128.09765625 -83.3903125 128.09765625 -84.0703125 128.09765625 C-85.530941 130.74504541 -86.0703125 131.99213959 -86.0703125 135.09765625 C-84.94407353 136.74219887 -84.94407353 136.74219887 -83.3203125 138.41015625 C-80.43617215 141.57922176 -77.61606423 144.78554005 -74.84399414 148.05224609 C-70.45435727 153.22471678 -66.00081973 158.31530863 -61.3828125 163.28515625 C-57.90389302 167.03899035 -54.58795803 170.85768913 -51.3828125 174.84765625 C-48.16927525 178.84317326 -44.78484931 182.43765739 -41.10546875 186 C-37.90422774 189.29955167 -35.10689653 192.91412708 -32.23046875 196.49609375 C-29.8771848 199.33024765 -27.37075749 201.88711623 -24.73046875 204.44921875 C-20.68094073 208.47016187 -17.07407639 212.91497277 -13.3828125 217.26171875 C-7.7890793 223.83718271 -2.10975074 230.29876339 3.7734375 236.6171875 C6.98437886 240.06597637 10.12635626 243.55989454 13.20703125 247.125 C16.0612548 250.39344193 18.99218353 253.5928442 21.9140625 256.80078125 C26.9296875 262.5162609 26.9296875 262.5162609 26.9296875 265.09765625 C22.1102498 265.32186071 17.29390665 265.48421432 12.47045898 265.59204102 C10.83385296 265.63702309 9.19760296 265.69823691 7.56225586 265.77661133 C-5.96278368 266.40808251 -5.96278368 266.40808251 -11.04931641 263.24536133 C-13.33250417 260.98688339 -15.21306445 258.71275163 -17.0703125 256.09765625 C-17.905625 255.12957031 -18.7409375 254.16148437 -19.6015625 253.1640625 C-20.25125 252.33777344 -20.9009375 251.51148438 -21.5703125 250.66015625 C-24.47325319 247.03652021 -27.43997828 243.52689391 -30.5703125 240.09765625 C-33.64684922 236.72304677 -36.58149467 233.27949761 -39.4453125 229.72265625 C-42.68983767 225.70939341 -46.05778433 221.87350241 -49.5703125 218.09765625 C-53.78054392 213.567743 -57.74669096 208.89473461 -61.625 204.078125 C-64.54034594 200.52475606 -67.54831245 197.06031032 -70.5703125 193.59765625 C-74.39357423 189.21561859 -78.16185951 184.80705531 -81.8203125 180.28515625 C-85.356194 175.91540141 -89.06570831 171.74797364 -92.859375 167.6015625 C-95.88706524 164.17267656 -98.67079675 160.57176784 -101.44140625 156.93359375 C-101.97894531 156.32773437 -102.51648438 155.721875 -103.0703125 155.09765625 C-103.7303125 155.09765625 -104.3903125 155.09765625 -105.0703125 155.09765625 C-106.35487685 156.49468647 -106.35487685 156.49468647 -107.6171875 158.3671875 C-108.12523926 159.08156982 -108.63329102 159.79595215 -109.15673828 160.53198242 C-109.70571777 161.31677979 -110.25469727 162.10157715 -110.8203125 162.91015625 C-111.99907662 164.56966669 -113.17879564 166.22849919 -114.359375 167.88671875 C-114.97071289 168.74813477 -115.58205078 169.60955078 -116.21191406 170.49707031 C-119.16227495 174.62571511 -122.1773214 178.7058202 -125.1953125 182.78515625 C-126.3725271 184.3788093 -127.54961223 185.97255798 -128.7265625 187.56640625 C-129.29117188 188.33082031 -129.85578125 189.09523438 -130.4375 189.8828125 C-132.41613677 192.56675281 -134.38529206 195.25752564 -136.35302734 197.94946289 C-140.73074867 203.93638298 -145.13587729 209.90261141 -149.5703125 215.84765625 C-150.0751416 216.52787842 -150.5799707 217.20810059 -151.10009766 217.90893555 C-151.57495605 218.54355713 -152.04981445 219.17817871 -152.5390625 219.83203125 C-152.95607422 220.39116211 -153.37308594 220.95029297 -153.80273438 221.52636719 C-155.12773513 223.16883731 -156.55331614 224.63255132 -158.0703125 226.09765625 C-158.0703125 225.43765625 -158.0703125 224.77765625 -158.0703125 224.09765625 C-166.3203125 224.09765625 -174.5703125 224.09765625 -183.0703125 224.09765625 C-181.68435959 221.32575044 -180.46445083 219.09593329 -178.70703125 216.62109375 C-178.23918213 215.95988525 -177.77133301 215.29867676 -177.28930664 214.61743164 C-176.78391357 213.90965576 -176.27852051 213.20187988 -175.7578125 212.47265625 C-175.22728271 211.72556396 -174.69675293 210.97847168 -174.15014648 210.20874023 C-168.71602337 202.57006593 -163.22470333 194.9725891 -157.72460938 187.38134766 C-154.94113048 183.53886513 -152.16156651 179.69355655 -149.3828125 175.84765625 C-148.83890869 175.09492432 -148.29500488 174.34219238 -147.73461914 173.56665039 C-144.10493929 168.53979917 -140.49110924 163.50199619 -136.89794922 158.44897461 C-134.48603067 155.06197291 -132.05015108 151.69370223 -129.59765625 148.3359375 C-129.00275391 147.51931641 -128.40785156 146.70269531 -127.79492188 145.86132812 C-126.62364459 144.25482212 -125.44927247 142.65056694 -124.27148438 141.04882812 C-123.47387695 139.95344727 -123.47387695 139.95344727 -122.66015625 138.8359375 C-121.94653931 137.8620105 -121.94653931 137.8620105 -121.21850586 136.8684082 C-119.89479873 134.98912706 -119.89479873 134.98912706 -119.0703125 132.09765625 C-120.39029858 130.06048804 -121.72215212 128.27520874 -123.2578125 126.41015625 C-124.19258183 125.23661251 -125.12612315 124.06208983 -126.05859375 122.88671875 C-126.55311035 122.26829102 -127.04762695 121.64986328 -127.55712891 121.01269531 C-130.08225619 117.81697115 -132.51129867 114.55048188 -134.9453125 111.28515625 C-135.96598184 109.92045025 -136.98681654 108.55586791 -138.0078125 107.19140625 C-138.51570312 106.51207031 -139.02359375 105.83273437 -139.546875 105.1328125 C-141.03099659 103.15017828 -142.51868067 101.17027929 -144.0078125 99.19140625 C-149.90814217 91.3472534 -155.74835644 83.46198928 -161.5534668 75.54711914 C-166.88297046 68.30419654 -172.33571449 61.15758879 -177.82910156 54.03833008 C-178.46944336 53.20454834 -179.10978516 52.3707666 -179.76953125 51.51171875 C-180.33502686 50.77904785 -180.90052246 50.04637695 -181.4831543 49.29150391 C-183.16314236 46.96934228 -184.62980279 44.57416945 -186.0703125 42.09765625 C-160.85149379 40.02749433 -160.85149379 40.02749433 -155.47265625 44.20703125 C-153.39074349 46.77901029 -151.68291313 49.32417342 -150.12353516 52.24121094 C-148.19492874 55.6406368 -145.70648421 58.6364899 -143.3203125 61.72265625 C-142.30490193 63.08415849 -141.29192788 64.44748088 -140.28125 65.8125 C-135.7490567 71.89148339 -131.06454053 77.85182901 -126.3984375 83.828125 C-123.47743166 87.5695162 -120.58135307 91.32926655 -117.6953125 95.09765625 C-113.55774298 100.48882713 -109.34174426 105.81205773 -105.0703125 111.09765625 C-101.37014855 109.86426827 -100.52328216 108.45945181 -98.1328125 105.41015625 C-94.56519127 100.94051085 -90.93089052 96.55284536 -87.1953125 92.22265625 C-83.30002819 87.6978061 -79.42070836 83.16077904 -75.5703125 78.59765625 C-71.71991051 74.03452619 -67.83987321 69.49813456 -63.9453125 64.97265625 C-60.45211768 60.91140815 -57.00582699 56.82246846 -53.6328125 52.66015625 C-48.47844458 46.31488744 -43.09668485 40.17256177 -37.72998047 34.00732422 C-29.47741975 24.51165933 -21.37381843 14.91523959 -13.4765625 5.12109375 C-9.21951147 -0.10121885 -6.49922575 -0.04316422 0 0 Z " fill="#97D93F" transform="translate(734.0703125,271.90234375)"/>
<path d="M0 0 C0.99 0.33 1.98 0.66 3 1 C2.34 1 1.68 1 1 1 C0.67708984 1.78697266 0.67708984 1.78697266 0.34765625 2.58984375 C-1.52860799 5.94536559 -4.03490881 8.69085927 -6.5625 11.5625 C-7.65986564 12.82464212 -8.75621177 14.08767134 -9.8515625 15.3515625 C-10.39071289 15.97321289 -10.92986328 16.59486328 -11.48535156 17.23535156 C-13.51488271 19.59986658 -15.47945893 22.01360529 -17.4375 24.4375 C-21.53979949 29.48933717 -25.78701978 34.4030598 -30.06005859 39.31005859 C-34.04703759 43.89096638 -37.98811681 48.50741507 -41.90136719 53.15136719 C-45.28481825 57.16384038 -48.70086469 61.14722309 -52.125 65.125 C-55.68783465 69.26450139 -59.19213977 73.43873109 -62.625 77.6875 C-65.65803332 81.42805827 -68.80167057 85.01876756 -72.0625 88.5625 C-76.62646962 93.52855041 -80.84325094 98.69227859 -85 104 C-86.49811577 105.87650583 -87.99807277 107.75154341 -89.5 109.625 C-90.50546875 110.88183594 -90.50546875 110.88183594 -91.53125 112.1640625 C-92.0159375 112.76992188 -92.500625 113.37578125 -93 114 C-97.14530405 112.45141261 -98.97435787 109.74633698 -101.5625 106.25 C-102.44446298 105.07228001 -103.32730724 103.89521957 -104.2109375 102.71875 C-104.66694336 102.10773438 -105.12294922 101.49671875 -105.59277344 100.8671875 C-107.91091717 97.79134377 -110.29960618 94.77180742 -112.6875 91.75 C-114.46066534 89.50182586 -116.23132268 87.25170668 -118 85 C-118.5451123 84.30745117 -119.09022461 83.61490234 -119.65185547 82.90136719 C-123.80363611 77.60009327 -127.79547857 72.199228 -131.75 66.75 C-136.49325355 60.2459884 -141.37168513 53.94682319 -146.71191406 47.92089844 C-148.76257675 45.58781855 -150.00311753 43.99064741 -151 41 C-147.75089088 42.38563656 -146.02641085 43.87389274 -143.8984375 46.67578125 C-143.33141113 47.41417236 -142.76438477 48.15256348 -142.18017578 48.91333008 C-141.58446777 49.70505615 -140.98875977 50.49678223 -140.375 51.3125 C-139.74964355 52.13065186 -139.12428711 52.94880371 -138.47998047 53.79174805 C-137.22116653 55.43951772 -135.96542 57.08963566 -134.71289062 58.7421875 C-133.29111135 60.6162774 -131.86140273 62.48329412 -130.421875 64.34375 C-125.96966011 70.09831346 -121.56283774 75.88683235 -117.16064453 81.6796875 C-114.41700425 85.2859431 -111.66436461 88.88529554 -108.91259766 92.48535156 C-107.15129502 94.80108007 -105.40733312 97.12871637 -103.66796875 99.4609375 C-102.6957008 100.74508575 -101.72307294 102.02896162 -100.75 103.3125 C-100.10623413 104.19216431 -100.10623413 104.19216431 -99.44946289 105.08959961 C-98.13840012 106.86227243 -98.13840012 106.86227243 -96 109 C-92.02034493 109.46852726 -92.02034493 109.46852726 -90.0625 107.0859375 C-89.381875 106.19132812 -88.70125 105.29671875 -88 104.375 C-87.21367188 103.36953125 -86.42734375 102.3640625 -85.6171875 101.328125 C-84.98441895 100.51504883 -84.98441895 100.51504883 -84.33886719 99.68554688 C-82.01652247 96.76186563 -79.56735193 93.94847828 -77.125 91.125 C-76.09597508 89.93001384 -75.06733038 88.73470015 -74.0390625 87.5390625 C-73.53149414 86.94899414 -73.02392578 86.35892578 -72.50097656 85.75097656 C-70.15340002 83.01239182 -67.82617674 80.25676332 -65.5 77.5 C-61.64959801 72.93686994 -57.76956071 68.40047831 -53.875 63.875 C-50.38180518 59.8137519 -46.93551449 55.72481221 -43.5625 51.5625 C-38.40813208 45.21723119 -33.02637235 39.07490552 -27.65966797 32.90966797 C-20.62811164 24.81893045 -13.67336526 16.67555596 -6.9140625 8.35546875 C-4.63380496 5.5493559 -2.32208587 2.77152185 0 0 Z " fill="#86C229" transform="translate(724,273)"/>
<path d="M0 0 C0 3.99833488 -1.35814212 4.81158018 -4.0625 7.6875 C-4.88878906 8.57824219 -5.71507812 9.46898437 -6.56640625 10.38671875 C-7.77103516 11.68029297 -7.77103516 11.68029297 -9 13 C-10.17317733 14.32760832 -11.34049664 15.66043259 -12.5 17 C-15.1433253 20.04197065 -17.84512481 23.0240432 -20.5625 26 C-23.92091689 29.7022821 -26.96029109 33.49546237 -29.80859375 37.6015625 C-30.20175781 38.06304687 -30.59492187 38.52453125 -31 39 C-31.66 39 -32.32 39 -33 39 C-34.4606285 41.64738916 -35 42.89448334 -35 46 C-33.87376103 47.64454262 -33.87376103 47.64454262 -32.25 49.3125 C-29.36585965 52.48156551 -26.54575173 55.6878838 -23.77368164 58.95458984 C-19.38404477 64.12706053 -14.93050723 69.21765238 -10.3125 74.1875 C-6.83358052 77.9413341 -3.51764553 81.76003288 -0.3125 85.75 C2.90103725 89.74551701 6.28546319 93.34000114 9.96484375 96.90234375 C13.16608476 100.20189542 15.96341597 103.81647083 18.83984375 107.3984375 C21.1931277 110.2325914 23.69955501 112.78945998 26.33984375 115.3515625 C30.38937177 119.37250562 33.99623611 123.81731652 37.6875 128.1640625 C43.2812332 134.73952646 48.96056176 141.20110714 54.84375 147.51953125 C58.0528896 150.96638489 61.19547856 154.45601833 64.26953125 158.0234375 C67.17427447 161.34127061 70.18330079 164.56569933 73.1796875 167.80078125 C75 170 75 170 76 173 C75.34 173 74.68 173 74 173 C74 172.34 74 171.68 74 171 C73.34 171 72.68 171 72 171 C70.58984375 169.6015625 70.58984375 169.6015625 68.9375 167.625 C66.2092053 164.41657062 63.44855554 161.25019633 60.625 158.125 C59.48417969 156.85849609 59.48417969 156.85849609 58.3203125 155.56640625 C56.79834913 153.88302252 55.27243374 152.20320165 53.7421875 150.52734375 C49.98901352 146.40146782 46.35484723 142.23458389 42.875 137.875 C38.36757816 132.29212313 33.47170149 127.12758315 28.53125 121.92797852 C24.08825773 117.22809765 19.92253783 112.42331631 15.9296875 107.33203125 C13.76562946 104.71676273 11.4163266 102.3830744 9 100 C7.40265875 98.30475719 5.81890991 96.59658907 4.25 94.875 C3.47140625 94.02679688 2.6928125 93.17859375 1.890625 92.3046875 C0 90 0 90 -1 87 C-1.66 87 -2.32 87 -3 87 C-4.37212301 85.46804728 -5.6715446 83.87078919 -6.9375 82.25 C-10.36601389 77.96021693 -13.89080179 73.83815096 -17.625 69.8125 C-21.24489671 65.90587264 -24.82767966 61.97928098 -28.296875 57.9375 C-29.56723589 56.49231881 -30.87588778 55.08062843 -32.203125 53.6875 C-32.94046875 52.90375 -33.6778125 52.12 -34.4375 51.3125 C-35.45650391 50.25482422 -35.45650391 50.25482422 -36.49609375 49.17578125 C-38.34406183 46.50222743 -38.54138773 45.18703721 -38 42 C-36.71484375 40.26171875 -36.71484375 40.26171875 -34.9375 38.6875 C-30.99163704 35.00888672 -27.50638963 31.09624957 -24 27 C-23.0222883 25.86314975 -22.04441003 24.72644274 -21.06640625 23.58984375 C-18.99844559 21.18362222 -16.93112097 18.77686464 -14.8671875 16.3671875 C-14.38862305 15.80999023 -13.91005859 15.25279297 -13.41699219 14.67871094 C-12.4592036 13.5440186 -11.51740273 12.39566648 -10.59082031 11.23535156 C-9.43406091 9.79046162 -8.2215114 8.39057872 -7 7 C-6.34 7 -5.68 7 -5 7 C-4.731875 6.401875 -4.46375 5.80375 -4.1875 5.1875 C-3.01506533 3.02775192 -1.80630718 1.64209744 0 0 Z " fill="#85C229" transform="translate(683,361)"/>
<path d="M0 0 C0.66 0 1.32 0 2 0 C3.24814331 1.40678023 4.4230839 2.87879704 5.5625 4.375 C8.40453352 8.02244735 11.3161668 11.52593757 14.4375 14.9375 C27.39209744 29.17629231 27.39209744 29.17629231 29 34 C30.485 34.495 30.485 34.495 32 35 C33.43802182 36.5910643 34.80325335 38.2486015 36.125 39.9375 C39.1688442 43.75587182 42.26435861 47.46140975 45.5625 51.0625 C49.21463402 55.06908723 52.60045295 59.22257525 55.953125 63.48046875 C58.81233312 66.99991386 61.85427804 70.33783852 64.921875 73.67578125 C71 80.47368421 71 80.47368421 71 83 C71.66 83 72.32 83 73 83 C74.41438406 84.57286684 75.75604401 86.21139996 77.0625 87.875 C78.1952397 89.31294443 79.33298887 90.74776828 80.5144043 92.14599609 C82 94 82 94 83.69848633 96.59228516 C87.00260058 101.10973847 89.30151867 103.65201225 94.91088867 104.80126953 C99.47449409 105.10484644 104.00179545 104.87535457 108.5625 104.625 C110.15936516 104.57475863 111.75638299 104.52914535 113.35351562 104.48828125 C117.23949199 104.37886644 121.11804023 104.20684268 125 104 C125.33 104.99 125.66 105.98 126 107 C121.1805623 107.22420446 116.36421915 107.38655807 111.54077148 107.49438477 C109.90416546 107.53936684 108.26791546 107.60058066 106.63256836 107.67895508 C93.10752882 108.31042626 93.10752882 108.31042626 88.02099609 105.14770508 C85.73780833 102.88922714 83.85724805 100.61509538 82 98 C81.1646875 97.03191406 80.329375 96.06382812 79.46875 95.06640625 C78.8190625 94.24011719 78.169375 93.41382813 77.5 92.5625 C74.59705931 88.93886396 71.63033422 85.42923766 68.5 82 C65.42346328 78.62539052 62.48881783 75.18184136 59.625 71.625 C56.38047483 67.61173716 53.01252817 63.77584616 49.5 60 C45.28976858 55.47008675 41.32362154 50.79707836 37.4453125 45.98046875 C34.52996656 42.42709981 31.52200005 38.96265407 28.5 35.5 C24.67673827 31.11796234 20.90845299 26.70939906 17.25 22.1875 C13.6581706 17.74897785 9.90403857 13.49474511 6.04296875 9.2890625 C0 2.51816444 0 2.51816444 0 0 Z " fill="#86C22A" transform="translate(635,430)"/>
<path d="M0 0 C-0.49628906 0.4846875 -0.99257813 0.969375 -1.50390625 1.46875 C-5.56626994 5.4771544 -9.44997786 9.56517697 -13.171875 13.890625 C-15.14432697 16.16653112 -17.16235365 18.39588207 -19.1875 20.625 C-23.37391919 25.25996411 -27.43205502 29.99479144 -31.48046875 34.74975586 C-34.64980573 38.4599164 -37.88323524 42.09590787 -41.1875 45.6875 C-44.37736844 49.16136309 -47.42048894 52.69910025 -50.375 56.375 C-54.25449834 61.18832449 -58.37601627 65.70396916 -62.60644531 70.20532227 C-66.4924221 74.36877935 -70.04728698 78.71886816 -73.4765625 83.26953125 C-73.97929688 83.84058594 -74.48203125 84.41164063 -75 85 C-75.66 85 -76.32 85 -77 85 C-75.54891844 81.72954206 -73.72302043 79.38310287 -71.3125 76.75 C-70.59578125 75.95980469 -69.8790625 75.16960937 -69.140625 74.35546875 C-68.43421875 73.57816406 -67.7278125 72.80085938 -67 72 C-65.85071219 70.69052384 -64.70469909 69.37816391 -63.5625 68.0625 C-60.953713 65.06919791 -58.29750037 62.1240082 -55.625 59.1875 C-52.55253227 55.78916448 -49.61557378 52.32409477 -46.75 48.75 C-42.09341188 42.99053574 -37.07165823 37.62051301 -32.0078125 32.22265625 C-29.1552359 29.17938059 -26.3907379 26.07055866 -23.6640625 22.9140625 C-20.16706992 18.89170015 -16.57075865 14.95678661 -13 11 C-10.03 7.7 -7.06 4.4 -4 1 C-14.23 0.67 -24.46 0.34 -35 0 C-35 -0.33 -35 -0.66 -35 -1 C-30.33732843 -1.19215767 -25.6744108 -1.37089491 -21.01074219 -1.53710938 C-19.42368721 -1.5955764 -17.83676381 -1.65773514 -16.25 -1.72363281 C-13.97159787 -1.8176169 -11.6930552 -1.89839523 -9.4140625 -1.9765625 C-8.70255035 -2.00875885 -7.99103821 -2.0409552 -7.25796509 -2.0741272 C-2.22774341 -2.22774341 -2.22774341 -2.22774341 0 0 Z " fill="#86C22B" transform="translate(763,274)"/>
<path d="M0 0 C2.31 1.98 4.62 3.96 7 6 C5.95199219 6.97839844 5.95199219 6.97839844 4.8828125 7.9765625 C1.42205696 11.44218207 -1.30711578 15.38373946 -4.125 19.375 C-5.27943474 20.99255387 -6.43439079 22.6097358 -7.58984375 24.2265625 C-8.16331543 25.03125977 -8.73678711 25.83595703 -9.32763672 26.66503906 C-11.75114912 30.04875769 -14.21729292 33.4003033 -16.6875 36.75 C-20.53072293 41.97416593 -24.32503338 47.23041627 -28.08618164 52.51391602 C-31.57960172 57.41926291 -35.09854993 62.30585229 -38.625 67.1875 C-39.17978027 67.95602295 -39.73456055 68.7245459 -40.30615234 69.51635742 C-42.67007277 72.78831342 -45.03685432 76.05770397 -47.4296875 79.30859375 C-51.18803923 84.42137034 -54.71950834 89.56668568 -58 95 C-58.99 94.67 -59.98 94.34 -61 94 C-44.69921875 71.4296875 -44.69921875 71.4296875 -43.09570312 69.20947266 C-42.02534316 67.72741058 -40.95503123 66.24531381 -39.88476562 64.76318359 C-37.13914015 60.96110355 -34.39263916 57.15966123 -31.64453125 53.359375 C-26.35144153 46.03809202 -21.06313628 38.71394404 -15.82763672 31.35131836 C-13.41571817 27.96431666 -10.97983858 24.59604598 -8.52734375 21.23828125 C-7.93244141 20.42166016 -7.33753906 19.60503906 -6.72460938 18.76367188 C-5.55333209 17.15716587 -4.37895997 15.55291069 -3.20117188 13.95117188 C-2.66943359 13.22091797 -2.13769531 12.49066406 -1.58984375 11.73828125 C-1.11409912 11.08899658 -0.63835449 10.43971191 -0.14819336 9.77075195 C1.17551377 7.89147081 1.17551377 7.89147081 2 5 C1.12085312 2.3430809 1.12085312 2.3430809 0 0 Z " fill="#88C42C" transform="translate(613,399)"/>
<path d="M0 0 C0.99 1.98 1.98 3.96 3 6 C1.02 5.34 -0.96 4.68 -3 4 C-3.32049316 4.44577393 -3.64098633 4.89154785 -3.97119141 5.35083008 C-11.46829264 15.77172124 -19.02905266 26.14273088 -26.65625 36.46875 C-29.2076629 39.92306016 -31.74848268 43.38487995 -34.28271484 46.85180664 C-38.66043617 52.83872673 -43.06556479 58.80495516 -47.5 64.75 C-48.0048291 65.43022217 -48.5096582 66.11044434 -49.02978516 66.8112793 C-49.50464355 67.44590088 -49.97950195 68.08052246 -50.46875 68.734375 C-50.88576172 69.29350586 -51.30277344 69.85263672 -51.73242188 70.42871094 C-53.05742263 72.07118106 -54.48300364 73.53489507 -56 75 C-56 74.34 -56 73.68 -56 73 C-64.25 73 -72.5 73 -81 73 C-80.505 72.01 -80.505 72.01 -80 71 C-79.31599121 71.09949951 -78.63198242 71.19899902 -77.92724609 71.30151367 C-64.74819348 73.25286608 -64.74819348 73.25286608 -52.57080078 69.32861328 C-48.31533059 64.92837869 -45.2687216 59.779735 -42.34130859 54.43310547 C-40.49591588 51.08560205 -38.39536503 47.97548951 -36.25 44.8125 C-35.65703125 43.87019531 -35.0640625 42.92789063 -34.453125 41.95703125 C-33.73382812 40.98830078 -33.73382812 40.98830078 -33 40 C-32.34 40 -31.68 40 -31 40 C-30.76539063 39.47535156 -30.53078125 38.95070313 -30.2890625 38.41015625 C-28.58497266 35.22402464 -26.49225431 32.35593129 -24.375 29.4375 C-23.92987061 28.81907227 -23.48474121 28.20064453 -23.02612305 27.56347656 C-19.66585462 22.90054107 -16.27993363 18.25618716 -12.88671875 13.6171875 C-10.34241998 10.08782895 -7.88740637 6.49910613 -5.4453125 2.8984375 C-3.719928 0.63212164 -2.8588608 0 0 0 Z " fill="#89C62D" transform="translate(632,423)"/>
<path d="M0 0 C4.35627521 3.13620531 7.14375384 6.60837129 10.1875 10.9375 C11.16275204 12.29651429 12.13933838 13.65457194 13.1171875 15.01171875 C13.84566895 16.02564697 13.84566895 16.02564697 14.58886719 17.06005859 C16.60777058 19.83552682 18.70507509 22.54095049 20.8125 25.25 C25.44627985 31.2183233 29.91819791 37.29976198 34.37915039 43.39794922 C37.66448034 47.87490731 40.99288466 52.31250985 44.3828125 56.7109375 C45.11032715 57.65582031 45.8378418 58.60070312 46.58740234 59.57421875 C48.00197563 61.40623328 49.4213867 63.23452512 50.84619141 65.05859375 C51.48991699 65.89261719 52.13364258 66.72664063 52.796875 67.5859375 C53.36760742 68.3186084 53.93833984 69.0512793 54.52636719 69.80615234 C56.08212294 72.12225923 57.05810168 74.38074063 58 77 C46.37113722 66.09794114 37.37896899 51.97225966 27.97631836 39.1640625 C20.30116137 28.70908977 12.47625004 18.37469356 4.5871582 8.08032227 C4.063396 7.39381592 3.53963379 6.70730957 3 6 C2.15538208 4.93833618 2.15538208 4.93833618 1.29370117 3.85522461 C0 2 0 2 0 0 Z " fill="#86C12A" transform="translate(554,321)"/>
<path d="M0 0 C0.639375 0.61875 1.27875 1.2375 1.9375 1.875 C2.40865234 2.32294922 2.87980469 2.77089844 3.36523438 3.23242188 C5 5 5 5 6.65039062 7.47070312 C10.36481333 12.63157799 10.36481333 12.63157799 15.87161255 15.53131104 C21.09314765 16.2499602 26.31868242 15.91285327 31.5625 15.625 C33.15936516 15.57475863 34.75638299 15.52914535 36.35351562 15.48828125 C40.23949199 15.37886644 44.11804023 15.20684268 48 15 C48.495 16.485 48.495 16.485 49 18 C44.1805623 18.22420446 39.36421915 18.38655807 34.54077148 18.49438477 C32.90416546 18.53936684 31.26791546 18.60058066 29.63256836 18.67895508 C16.096835 19.31092554 16.096835 19.31092554 10.98803711 16.11694336 C8.70334911 13.85834744 6.84383817 11.62548849 5 9 C4.36779541 8.19054932 3.73559082 7.38109863 3.08422852 6.54711914 C1.66661299 4.73101599 0.31428791 2.89154378 -1 1 C-0.67 0.67 -0.34 0.34 0 0 Z " fill="#87C22C" transform="translate(712,519)"/>
<path d="M0 0 C0.495 1.485 0.495 1.485 1 3 C-0.00048828 4.79003906 -0.00048828 4.79003906 -1.5703125 6.765625 C-2.1375 7.49136719 -2.7046875 8.21710938 -3.2890625 8.96484375 C-4.19785156 10.09599609 -4.19785156 10.09599609 -5.125 11.25 C-6.29528806 12.73357314 -7.46457134 14.21793949 -8.6328125 15.703125 C-9.20032227 16.42048828 -9.76783203 17.13785156 -10.35253906 17.87695312 C-12.66319154 20.85464043 -14.83657792 23.91406209 -17 27 C-17.33 26.34 -17.66 25.68 -18 25 C-26.25 25 -34.5 25 -43 25 C-42.67 24.34 -42.34 23.68 -42 23 C-40.97398682 23.14924927 -40.97398682 23.14924927 -39.92724609 23.30151367 C-26.66327613 25.28997366 -26.66327613 25.28997366 -14.49023438 21.19970703 C-10.2673124 16.72787298 -7.10636664 11.61511685 -4.22900391 6.19824219 C-2.98336598 3.97024777 -1.57321131 2.0066296 0 0 Z " fill="#76A92A" transform="translate(594,471)"/>
<path d="M0 0 C13.69505348 -0.15387701 27.32274995 0.3122966 41 1 C41 1.33 41 1.66 41 2 C35.64392495 3.10116675 30.44314113 3.19141769 25 3.1875 C24.07678955 3.18814453 23.1535791 3.18878906 22.20239258 3.18945312 C14.65307572 3.13168946 7.42894292 2.39838926 0 1 C0 0.67 0 0.34 0 0 Z " fill="#111111" transform="translate(403,558)"/>
<path d="M0 0 C-0.49628906 0.4846875 -0.99257813 0.969375 -1.50390625 1.46875 C-5.68502157 5.59432868 -9.63203187 9.79436893 -13.359375 14.3359375 C-15.11294849 16.11456204 -16.71881589 17.01809901 -19 18 C-14.10442061 12.22572688 -9.07056192 6.63395769 -4 1 C-14.23 0.67 -24.46 0.34 -35 0 C-35 -0.33 -35 -0.66 -35 -1 C-30.33732843 -1.19215767 -25.6744108 -1.37089491 -21.01074219 -1.53710938 C-19.42368721 -1.5955764 -17.83676381 -1.65773514 -16.25 -1.72363281 C-13.97159787 -1.8176169 -11.6930552 -1.89839523 -9.4140625 -1.9765625 C-8.70255035 -2.00875885 -7.99103821 -2.0409552 -7.25796509 -2.0741272 C-2.22774341 -2.22774341 -2.22774341 -2.22774341 0 0 Z " fill="#7CB325" transform="translate(763,274)"/>
<path d="M0 0 C0.33 0 0.66 0 1 0 C1.13277344 1.26714844 1.26554687 2.53429687 1.40234375 3.83984375 C1.58071494 5.53906399 1.75910116 7.23828266 1.9375 8.9375 C2.02451172 9.76830078 2.11152344 10.59910156 2.20117188 11.45507812 C2.78081117 16.97238544 3.38247729 22.48680174 4 28 C3.01 28.33 2.02 28.66 1 29 C-0.4137169 19.13903251 -1.41872597 9.95025375 0 0 Z " fill="#282929" transform="translate(278,415)"/>
<path d="M0 0 C2.52113092 -0.05447822 5.0410585 -0.09389852 7.5625 -0.125 C8.26697266 -0.14175781 8.97144531 -0.15851563 9.69726562 -0.17578125 C14.51891822 -0.22022044 18.42297438 0.47231996 23 2 C23 2.33 23 2.66 23 3 C15.08 2.67 7.16 2.34 -1 2 C-0.67 1.34 -0.34 0.68 0 0 Z " fill="#181816" transform="translate(432,236)"/>
<path d="M0 0 C0 0.66 0 1.32 0 2 C-10.56 1.67 -21.12 1.34 -32 1 C-32 0.67 -32 0.34 -32 0 C-27.7643915 -0.16752496 -23.52859426 -0.32809332 -19.29248047 -0.48217773 C-17.85100177 -0.5355959 -16.40959259 -0.59092518 -14.96826172 -0.64819336 C-12.89826447 -0.73010997 -10.82811573 -0.80518359 -8.7578125 -0.87890625 C-6.88826904 -0.94960327 -6.88826904 -0.94960327 -4.98095703 -1.02172852 C-2 -1 -2 -1 0 0 Z " fill="#75B31C" transform="translate(761,535)"/>
<path d="M0 0 C0 0.33 0 0.66 0 1 C-2.18652739 1.33965474 -4.37428025 1.67142477 -6.5625 2 C-8.38974609 2.2784375 -8.38974609 2.2784375 -10.25390625 2.5625 C-13.87627848 2.98555077 -17.35712046 3.07501425 -21 3 C-14.81862654 -2.46813806 -7.61993863 -0.88130963 0 0 Z " fill="#161615" transform="translate(418,237)"/>
<path d="M0 0 C-2.76055022 1.84036681 -4.74598117 2.68344114 -7.875 3.625 C-8.71804688 3.88539063 -9.56109375 4.14578125 -10.4296875 4.4140625 C-13.04224458 5.00963022 -15.33041371 5.10525251 -18 5 C-12.72807643 0.36070726 -6.81560969 -0.27818815 0 0 Z " fill="#171717" transform="translate(479,552)"/>
<path d="M0 0 C-0.66 0 -1.32 0 -2 0 C-2 0.66 -2 1.32 -2 2 C-6.873261 3.5912689 -10.80790596 4.21192221 -16 4 C-13.21769572 2.14513048 -11.15636393 1.27537888 -8 0.3125 C-6.700625 -0.09548828 -6.700625 -0.09548828 -5.375 -0.51171875 C-3 -1 -3 -1 0 0 Z " fill="#282828" transform="translate(390,241)"/>
<path d="M0 0 C2.31 1.98 4.62 3.96 7 6 C5.68 7.32 4.36 8.64 3 10 C2.01 9.67 1.02 9.34 0 9 C0.37125 8.443125 0.7425 7.88625 1.125 7.3125 C2.29515863 4.94283647 2.29515863 4.94283647 1.125 2.25 C0.75375 1.5075 0.3825 0.765 0 0 Z " fill="#8ECD33" transform="translate(613,399)"/>
<path d="M0 0 C3.63 0 7.26 0 11 0 C10.34 0.66 9.68 1.32 9 2 C9.33 2.66 9.66 3.32 10 4 C7.03 3.67 4.06 3.34 1 3 C0.67 2.01 0.34 1.02 0 0 Z " fill="#2B2B2A" transform="translate(423,235)"/>
<path d="M0 0 C3.24298429 1.08099476 3.81612526 1.65626616 5.75 4.3125 C6.19859375 4.90675781 6.6471875 5.50101562 7.109375 6.11328125 C8 8 8 8 7.640625 10.23046875 C7.42921875 10.81441406 7.2178125 11.39835937 7 12 C5.82767315 10.3790787 4.6622923 8.75313167 3.5 7.125 C2.8503125 6.22007812 2.200625 5.31515625 1.53125 4.3828125 C0 2 0 2 0 0 Z " fill="#181817" transform="translate(298,487)"/>
<path d="M0 0 C0.33 0 0.66 0 1 0 C1.33895656 1.72807318 1.67091525 3.45751974 2 5.1875 C2.185625 6.15042969 2.37125 7.11335938 2.5625 8.10546875 C2.96877612 10.7934206 3.07933572 13.28771019 3 16 C1.51171875 14.91796875 1.51171875 14.91796875 0 13 C-0.29296875 9.86328125 -0.29296875 9.86328125 -0.1875 6.3125 C-0.16042969 5.13300781 -0.13335937 3.95351563 -0.10546875 2.73828125 C-0.07066406 1.83464844 -0.03585937 0.93101562 0 0 Z " fill="#0F0F0F" transform="translate(261,429)"/>
<path d="M0 0 C-2.51822275 2.42472438 -3.67533206 2.99254989 -7.234375 3.07421875 C-8.39453125 2.94660156 -9.5546875 2.81898438 -10.75 2.6875 C-11.92046875 2.56761719 -13.0909375 2.44773437 -14.296875 2.32421875 C-15.18890625 2.21722656 -16.0809375 2.11023438 -17 2 C-17 1.67 -17 1.34 -17 1 C-11.30494264 0.3583034 -5.73266804 -0.12462322 0 0 Z " fill="#323331" transform="translate(454,557)"/>
<path d="M0 0 C1 4 1 4 0.00390625 5.703125 C-1.33072917 7.13541667 -2.66536458 8.56770833 -4 10 C-4.99 9.67 -5.98 9.34 -7 9 C-4.69 6.03 -2.38 3.06 0 0 Z " fill="#2A2F22" transform="translate(550,496)"/>
<path d="M0 0 C1.32 0.33 2.64 0.66 4 1 C-0.455 4.465 -0.455 4.465 -5 8 C-5.66 7.67 -6.32 7.34 -7 7 C-4.78071806 4.09197539 -3.07030857 2.04687238 0 0 Z " fill="#171616" transform="translate(333,265)"/>
<path d="M0 0 C1.60568666 0.28317926 3.20952047 0.57687791 4.8125 0.875 C6.15248047 1.11863281 6.15248047 1.11863281 7.51953125 1.3671875 C10 2 10 2 13 4 C8.4932782 4.17673419 5.03374456 4.13551182 1 2 C0.67 1.34 0.34 0.68 0 0 Z " fill="#171716" transform="translate(377,569)"/>
<path d="M0 0 C0.33 0 0.66 0 1 0 C1.08131463 1.43655854 1.13933559 2.8744483 1.1875 4.3125 C1.23970703 5.51326172 1.23970703 5.51326172 1.29296875 6.73828125 C0.93801608 9.47851584 0.10633718 10.29171079 -2 12 C-2.17835515 7.45194365 -1.99785435 4.1205746 0 0 Z " fill="#121212" transform="translate(281,369)"/>
<path d="M0 0 C3.16605307 2.11070205 4.19587357 3.73539027 6 7 C1.75177626 6.52797514 -0.19989709 4.03344482 -3 1 C-2.01 0.67 -1.02 0.34 0 0 Z " fill="#292B22" transform="translate(545,280)"/>
<path d="M0 0 C0.99 0 1.98 0 3 0 C5.25 2.3125 5.25 2.3125 7 5 C6.67 5.99 6.34 6.98 6 8 C1.125 3.375 1.125 3.375 0 0 Z " fill="#26291D" transform="translate(560,298)"/>
<path d="M0 0 C0.66 0.66 1.32 1.32 2 2 C0.02 4.31 -1.96 6.62 -4 9 C-4.66 8.67 -5.32 8.34 -6 8 C-6 6 -6 6 -3.5625 3.4375 C-2.716875 2.633125 -1.87125 1.82875 -1 1 C-0.67 0.67 -0.34 0.34 0 0 Z " fill="#8DCB2F" transform="translate(635,378)"/>
<path d="M0 0 C3.59391114 1.33488128 6.75490696 2.96022723 10 5 C8.3125 5.6875 8.3125 5.6875 6 6 C3.3125 4.75 3.3125 4.75 1 3 C0.67 2.01 0.34 1.02 0 0 Z " fill="#171716" transform="translate(341,553)"/>
<path d="M0 0 C-0.33 0.66 -0.66 1.32 -1 2 C-4.47325181 3.1577506 -7.36067448 3.06866652 -11 3 C-3.71428571 -1.85714286 -3.71428571 -1.85714286 0 0 Z " fill="#252625" transform="translate(486,549)"/>
<path d="M0 0 C1.46726798 3.81489674 0.43336419 6.29011622 -1 10 C-1.66 10 -2.32 10 -3 10 C-2.49287967 6.28111761 -1.88391785 3.26545761 0 0 Z " fill="#161615" transform="translate(288,348)"/>
<path d="M0 0 C1.5 1 1.5 1 3 3 C3.27345479 5.71846235 3.13491285 8.25677199 3 11 C0.43383368 7.15075052 0.44902324 4.5650696 0 0 Z " fill="#131312" transform="translate(280,442)"/>
<path d="M0 0 C1.45606519 4.52092968 0.27032841 7.51648796 -1 12 C-1.33 12 -1.66 12 -2 12 C-2.05422947 10.5629191 -2.09289723 9.12524538 -2.125 7.6875 C-2.14820313 6.88699219 -2.17140625 6.08648437 -2.1953125 5.26171875 C-2 3 -2 3 0 0 Z " fill="#0E0F0F" transform="translate(265,364)"/>
<path d="M0 0 C2.78211944 0.37596209 4.5879284 0.67318459 6.8125 2.4375 C8 4 8 4 8 6 C4.63408134 4.55746343 2.48952921 2.66735273 0 0 Z " fill="#171816" transform="translate(530,271)"/>
<path d="M0 0 C4.40114397 0.50298788 6.71195019 2.08772731 10 5 C5.2482602 4.56802365 3.07999946 3.67230705 0 0 Z " fill="#171716" transform="translate(490,266)"/>
<path d="M0 0 C4.29 0.33 8.58 0.66 13 1 C13 1.33 13 1.66 13 2 C9.37 2.33 5.74 2.66 2 3 C1.34 2.01 0.68 1.02 0 0 Z " fill="#363635" transform="translate(398,556)"/>
<path d="M0 0 C-0.33 3.96 -0.66 7.92 -1 12 C-1.33 12 -1.66 12 -2 12 C-2.33 8.37 -2.66 4.74 -3 1 C-1 0 -1 0 0 0 Z " fill="#363736" transform="translate(281,379)"/>
<path d="M0 0 C4 1 4 1 5.8125 2.875 C6.204375 3.57625 6.59625 4.2775 7 5 C6.67 5.99 6.34 6.98 6 8 C4.02 5.36 2.04 2.72 0 0 Z " fill="#27291F" transform="translate(539,303)"/>
<path d="M0 0 C1 4 1 4 1 4 Z " fill="#393938" transform="translate(257,419)"/>
<path d="M0 0 C1 4 1 4 1 4 Z " fill="#3A3A3A" transform="translate(257,393)"/>
<path d="M0 0 C3 1 3 1 3 1 Z " fill="#323332" transform="translate(389,552)"/>
<path d="" fill="#3B3C3B" transform="translate(0,0)"/>
<path d="M0 0 C2 1 2 1 2 1 Z " fill="#383734" transform="translate(468,575)"/>
<path d="" fill="#393837" transform="translate(0,0)"/>
<path d="M0 0 C2 1 2 1 2 1 Z " fill="#343333" transform="translate(342,557)"/>
<path d="M0 0 C2 1 2 1 2 1 Z " fill="#343332" transform="translate(354,538)"/>
<path d="M0 0 C2 1 2 1 2 1 Z " fill="#333533" transform="translate(340,529)"/>
<path d="M0 0 C2 1 2 1 2 1 Z " fill="#424436" transform="translate(520,520)"/>
<path d="M0 0 C2 1 2 1 2 1 Z " fill="#363635" transform="translate(273,487)"/>
<path d="" fill="#363635" transform="translate(0,0)"/>
<path d="" fill="#363534" transform="translate(0,0)"/>
<path d="" fill="#373736" transform="translate(0,0)"/>
<path d="" fill="#343334" transform="translate(0,0)"/>
<path d="M0 0 C2 1 2 1 2 1 Z " fill="#383838" transform="translate(264,353)"/>
<path d="" fill="#353436" transform="translate(0,0)"/>
<path d="" fill="#313131" transform="translate(0,0)"/>
<path d="M0 0 C2 1 2 1 2 1 Z " fill="#3A3938" transform="translate(360,248)"/>
<path d="" fill="#616161" transform="translate(0,0)"/>
<path d="" fill="#363836" transform="translate(0,0)"/>
<path d="" fill="#393937" transform="translate(0,0)"/>
<path d="" fill="#363735" transform="translate(0,0)"/>
<path d="" fill="#363736" transform="translate(0,0)"/>
<path d="" fill="#383736" transform="translate(0,0)"/>
<path d="" fill="#373536" transform="translate(0,0)"/>
<path d="" fill="#343533" transform="translate(0,0)"/>
<path d="" fill="#383736" transform="translate(0,0)"/>
<path d="" fill="#383838" transform="translate(0,0)"/>
<path d="" fill="#373737" transform="translate(0,0)"/>
<path d="" fill="#313230" transform="translate(0,0)"/>
<path d="" fill="#3A3C35" transform="translate(0,0)"/>
<path d="" fill="#393837" transform="translate(0,0)"/>
<path d="" fill="#363734" transform="translate(0,0)"/>
<path d="" fill="#343332" transform="translate(0,0)"/>
<path d="" fill="#383935" transform="translate(0,0)"/>
<path d="" fill="#333533" transform="translate(0,0)"/>
<path d="" fill="#3C3F38" transform="translate(0,0)"/>
<path d="" fill="#343431" transform="translate(0,0)"/>
<path d="" fill="#92C347" transform="translate(0,0)"/>
<path d="" fill="#91C345" transform="translate(0,0)"/>
<path d="" fill="#96C842" transform="translate(0,0)"/>
<path d="" fill="#3C3E35" transform="translate(0,0)"/>
<path d="" fill="#93C843" transform="translate(0,0)"/>
<path d="" fill="#414338" transform="translate(0,0)"/>
<path d="" fill="#3E4333" transform="translate(0,0)"/>
<path d="" fill="#404336" transform="translate(0,0)"/>
<path d="" fill="#90C245" transform="translate(0,0)"/>
<path d="" fill="#3E4237" transform="translate(0,0)"/>
<path d="" fill="#424338" transform="translate(0,0)"/>
<path d="" fill="#373434" transform="translate(0,0)"/>
<path d="" fill="#333433" transform="translate(0,0)"/>
<path d="" fill="#97CD44" transform="translate(0,0)"/>
<path d="" fill="#515A36" transform="translate(0,0)"/>
<path d="" fill="#353535" transform="translate(0,0)"/>
<path d="" fill="#343434" transform="translate(0,0)"/>
<path d="" fill="#93CA44" transform="translate(0,0)"/>
<path d="" fill="#353733" transform="translate(0,0)"/>
<path d="" fill="#96CB44" transform="translate(0,0)"/>
<path d="" fill="#353434" transform="translate(0,0)"/>
<path d="" fill="#353734" transform="translate(0,0)"/>
<path d="" fill="#333331" transform="translate(0,0)"/>
<path d="" fill="#353434" transform="translate(0,0)"/>
<path d="" fill="#95CC44" transform="translate(0,0)"/>
<path d="" fill="#353637" transform="translate(0,0)"/>
<path d="" fill="#363636" transform="translate(0,0)"/>
<path d="" fill="#8FBF45" transform="translate(0,0)"/>
<path d="" fill="#333333" transform="translate(0,0)"/>
<path d="" fill="#90C044" transform="translate(0,0)"/>
<path d="" fill="#95CC43" transform="translate(0,0)"/>
<path d="" fill="#96CF48" transform="translate(0,0)"/>
<path d="" fill="#353637" transform="translate(0,0)"/>
<path d="" fill="#95CC43" transform="translate(0,0)"/>
<path d="" fill="#343535" transform="translate(0,0)"/>
<path d="" fill="#9AD244" transform="translate(0,0)"/>
<path d="" fill="#9AD246" transform="translate(0,0)"/>
<path d="" fill="#353435" transform="translate(0,0)"/>
<path d="" fill="#373837" transform="translate(0,0)"/>
<path d="" fill="#99D245" transform="translate(0,0)"/>
<path d="" fill="#97CA4D" transform="translate(0,0)"/>
<path d="" fill="#97D248" transform="translate(0,0)"/>
<path d="" fill="#3A3838" transform="translate(0,0)"/>
<path d="" fill="#95CC47" transform="translate(0,0)"/>
<path d="" fill="#94CC46" transform="translate(0,0)"/>
<path d="" fill="#94CC43" transform="translate(0,0)"/>
<path d="" fill="#363635" transform="translate(0,0)"/>
<path d="" fill="#9ACE47" transform="translate(0,0)"/>
<path d="" fill="#97CD43" transform="translate(0,0)"/>
<path d="" fill="#97CD4A" transform="translate(0,0)"/>
<path d="" fill="#383638" transform="translate(0,0)"/>
<path d="" fill="#95CA44" transform="translate(0,0)"/>
<path d="" fill="#98CE46" transform="translate(0,0)"/>
<path d="" fill="#9AD146" transform="translate(0,0)"/>
<path d="" fill="#99D346" transform="translate(0,0)"/>
<path d="" fill="#323132" transform="translate(0,0)"/>
<path d="" fill="#93C945" transform="translate(0,0)"/>
<path d="" fill="#323232" transform="translate(0,0)"/>
<path d="" fill="#8EC544" transform="translate(0,0)"/>
<path d="" fill="#98CF49" transform="translate(0,0)"/>
<path d="" fill="#6D8F38" transform="translate(0,0)"/>
<path d="" fill="#94C944" transform="translate(0,0)"/>
<path d="" fill="#353434" transform="translate(0,0)"/>
<path d="" fill="#38383A" transform="translate(0,0)"/>
<path d="" fill="#95C94B" transform="translate(0,0)"/>
<path d="" fill="#5D7237" transform="translate(0,0)"/>
<path d="" fill="#373937" transform="translate(0,0)"/>
<path d="" fill="#94C943" transform="translate(0,0)"/>
<path d="" fill="#93C844" transform="translate(0,0)"/>
<path d="" fill="#8EC13F" transform="translate(0,0)"/>
<path d="" fill="#383736" transform="translate(0,0)"/>
<path d="" fill="#363A38" transform="translate(0,0)"/>
<path d="" fill="#373630" transform="translate(0,0)"/>
<path d="" fill="#3F4433" transform="translate(0,0)"/>
<path d="" fill="#3E4035" transform="translate(0,0)"/>
<path d="" fill="#7FAA3F" transform="translate(0,0)"/>
<path d="" fill="#383833" transform="translate(0,0)"/>
<path d="" fill="#383834" transform="translate(0,0)"/>
<path d="" fill="#373636" transform="translate(0,0)"/>
<path d="" fill="#383733" transform="translate(0,0)"/>
<path d="" fill="#353636" transform="translate(0,0)"/>
<path d="" fill="#393E33" transform="translate(0,0)"/>
<path d="" fill="#383836" transform="translate(0,0)"/>
<path d="" fill="#383A35" transform="translate(0,0)"/>
<path d="" fill="#383736" transform="translate(0,0)"/>
<path d="" fill="#363635" transform="translate(0,0)"/>
<path d="" fill="#383936" transform="translate(0,0)"/>
<path d="" fill="#383733" transform="translate(0,0)"/>
<path d="" fill="#383737" transform="translate(0,0)"/>
<path d="" fill="#3B3A36" transform="translate(0,0)"/>
<path d="" fill="#3C3B3A" transform="translate(0,0)"/>
<path d="" fill="#393B38" transform="translate(0,0)"/>
<path d="" fill="#3C3839" transform="translate(0,0)"/>
<path d="" fill="#3A3A39" transform="translate(0,0)"/>
<path d="" fill="#3B3C37" transform="translate(0,0)"/>
<path d="" fill="#343233" transform="translate(0,0)"/>
<path d="" fill="#3B3C38" transform="translate(0,0)"/>
<path d="" fill="#363534" transform="translate(0,0)"/>
<path d="" fill="#373737" transform="translate(0,0)"/>
<path d="" fill="#393B37" transform="translate(0,0)"/>
<path d="" fill="#3B3B38" transform="translate(0,0)"/>
<path d="" fill="#404341" transform="translate(0,0)"/>
</svg>
