<svg xmlns="http://www.w3.org/2000/svg" width="614" height="534" viewBox="0 0 614 534">
  <g fill="#003300">
    <path d="M0 0 C39.733 -0.713 75.281 14.413 103.934 41.543 C109.443 46.922 114.166 52.805 118.887 58.871 C119.103 59.149 119.103 59.149 120.2 60.554 C122.316 63.313 124.079 65.989 125.574 69.121 C107.078 70.751 107.078 70.751 101.855 67.352 C100.074 64.934 100.074 64.934 98.426 62.172 C96.18 58.472 93.512 55.654 90.449 52.621 C89.895 52.07 89.34 51.519 88.769 50.952 C82.886 45.248 76.465 40.531 69.574 36.121 C69.006 35.756 68.438 35.392 67.852 35.016 C40.096 17.523 6.369 13.23 -25.426 20.121 C-58.447 27.647 -85.178 47.846 -103.426 76.121 C-104.043 77.076 -104.661 78.031 -105.297 79.016 C-125.149 111.337 -128.93 150.905 -120.465 187.402 C-116.332 203.684 -108.553 219.737 -98.426 233.121 C-97.741 234.026 -97.057 234.931 -96.352 235.863 C-75.717 262.017 -47.493 279.666 -14.426 285.121 C-13.375 285.304 -12.325 285.487 -11.242 285.676 C22.756 289.643 55.153 280.163 81.949 258.996 C87.434 254.401 92.512 249.425 97.531 244.332 C97.786 244.074 97.786 244.074 99.078 242.771 C100.574 241.121 100.574 241.121 101.93 239.18 C103.997 236.294 105.372 234.404 108.92 233.568 C111.63 233.433 114.242 233.508 116.949 233.684 C117.876 233.715 118.803 233.747 119.758 233.779 C122.033 233.861 124.302 233.976 126.574 234.121 C107.265 267.005 75.354 290.453 38.574 300.121 C30.01 302.219 21.388 303.729 12.574 304.121 C12.003 304.148 12.003 304.148 9.113 304.281 C-32.802 305.259 -68.63 287.964 -98.816 259.898 C-100.426 258.121 -100.426 258.121 -100.426 256.121 C-101.086 256.121 -101.746 256.121 -102.426 256.121 C-104.674 253.821 -106.546 251.181 -108.488 248.621 C-108.78 248.237 -108.78 248.237 -110.256 246.293 C-115.735 238.937 -120.27 231.285 -124.426 223.121 C-124.742 222.511 -125.059 221.901 -125.385 221.272 C-144.231 184.613 -146.326 141.287 -134.156 102.199 C-121.657 64.32 -95.795 33.142 -60.328 14.909 C-41.302 5.46 -21.221 0.75 0 0 Z" transform="translate(189.42578125,43.87890625)"/>
    <path d="M0 0 C10.18 10.75 13.144 22.377 13.094 36.836 C13.11 37.761 13.126 38.686 13.143 39.639 C13.151 52.232 8.678 64.105 -0.094 73.273 C-9.347 81.828 -20.598 86.359 -33.219 86.898 C-33.973 86.95 -34.727 87.002 -35.504 87.055 C-48.962 87.58 -62.404 83.485 -73.031 75.148 C-82.732 66.04 -87.739 54.15 -88.422 40.98 C-88.72 24.664 -85.186 11.27 -73.66 -0.844 C-53.665 -19.335 -19.462 -18.434 0 0 Z M-65.434 7.984 C-72.818 15.902 -76.204 26.16 -76.219 36.898 C-75.448 49.076 -72.526 58.702 -63.453 67.145 C-54.785 73.949 -44.153 76.968 -33.219 75.898 C-21.535 74.169 -13.281 70.201 -5.723 61.047 C1.653 50.51 2.298 37.239 0.285 24.844 C-2.626 14.286 -9.059 6.095 -18.531 0.543 C-34.076 -6.539 -53.018 -3.616 -65.434 7.984 Z" transform="translate(159.21875,405.1015625)"/>
    <path d="M0 0 C3.63 0 7.26 0 11 0 C13.005 2.005 12.256 6 12.316 8.754 C12.337 9.529 12.358 10.305 12.379 11.104 C12.445 13.59 12.504 16.076 12.562 18.562 C12.606 20.244 12.649 21.926 12.693 23.607 C12.801 27.738 12.902 31.869 13 36 C13.449 35.594 13.898 35.189 14.36 34.771 C23.277 26.888 32.241 25.122 43.91 25.629 C54.65 26.422 61.814 31.132 69 39 C75.994 48.022 75.982 60.127 75 71 C73.244 80.643 67.544 87.871 59.766 93.664 C50.099 99.526 38.213 100.477 27.344 97.836 C22.086 95.961 16.952 92.952 13 89 C11.032 90.968 11.338 94.348 11 97 C7.37 97 3.74 97 0 97 C0 64.99 0 32.98 0 0 Z M16 45 C11.324 52.226 10.294 59.511 11 68 C12.502 74.992 15.11 79.801 20.875 84.188 C28.587 88.661 36.262 88.877 45 88 C51.619 86.007 56.214 82.736 60 77 C64.06 68.849 64.654 59.741 62.121 50.949 C59.138 44.461 54.874 39.577 48.207 36.863 C36.319 33.663 24.276 35.632 16 45 Z" transform="translate(274,393)"/>
    <path d="M0 0 C0 3.96 0 7.92 0 12 C-0.825 11.835 -0.825 11.835 -5 11 C-13.031 10.365 -20.143 10.395 -27 15 C-32.665 20.296 -34.997 27.045 -35.432 34.694 C-35.473 36.338 -35.499 37.984 -35.512 39.629 C-35.53 40.504 -35.548 41.379 -35.566 42.281 C-35.62 45.041 -35.654 47.802 -35.688 50.562 C-35.721 52.449 -35.755 54.335 -35.791 56.221 C-35.875 60.814 -35.942 65.407 -36 70 C-39.96 70 -43.92 70 -48 70 C-48 47.23 -48 24.46 -48 1 C-44.37 1 -40.74 1 -37 1 C-37 4.63 -37 8.26 -37 12 C-36.34 12 -35.68 12 -35 12 C-34.745 11.403 -34.49 10.806 -34.227 10.191 C-31.304 4.971 -24.993 1.353 -19.418 -0.539 C-13.229 -1.719 -6.004 -2.001 0 0 Z" transform="translate(248,420)"/>
  </g>
  <g fill="#00c200">
    <path d="M0 0 C0.728 0.004 1.456 0.008 2.207 0.013 C4.53 0.03 6.853 0.067 9.176 0.105 C10.752 0.121 12.328 0.134 13.904 0.146 C17.766 0.18 21.627 0.231 25.488 0.293 C23.603 4.372 20.871 7.316 17.801 10.543 C16.706 11.71 15.613 12.878 14.52 14.047 C13.994 14.608 13.468 15.169 12.926 15.747 C10.62 18.227 8.404 20.783 6.188 23.344 C2.674 27.374 -0.929 31.324 -4.512 35.293 C-6.012 36.959 -7.512 38.626 -9.012 40.293 C-11.283 42.818 -13.556 45.342 -15.832 47.863 C-19.824 52.288 -23.785 56.736 -27.699 61.23 C-30.543 64.467 -33.438 67.657 -36.324 70.855 C-38.816 73.632 -41.269 76.44 -43.719 79.254 C-45.69 81.496 -47.693 83.707 -49.699 85.918 C-53.354 89.964 -56.914 94.08 -60.449 98.23 C-65.679 104.37 -71.044 110.365 -76.512 116.293 C-75.013 121.722 -71.274 125.008 -67.449 128.918 C-62.259 134.33 -57.355 139.787 -52.684 145.652 C-50.231 148.634 -47.641 151.469 -45.012 154.293 C-41.579 157.98 -38.286 161.734 -35.137 165.668 C-30.53 171.393 -25.544 176.715 -20.52 182.07 C-17.667 185.114 -14.902 188.222 -12.176 191.379 C-10.188 193.665 -8.165 195.917 -6.137 198.168 C-5.376 199.012 -4.616 199.857 -3.832 200.727 C-2.31 202.41 -0.784 204.09 0.746 205.766 C5.43 210.915 9.899 216.188 14.27 221.605 C17.085 225.016 20.048 228.274 23.055 231.516 C24.488 233.293 24.488 233.293 24.488 235.293 C20.115 235.568 15.746 235.766 11.366 235.897 C9.881 235.952 8.397 236.027 6.915 236.123 C-5.35 236.896 -5.35 236.896 -10.631 232.98 C-13.171 230.199 -15.355 227.377 -17.512 224.293 C-18.938 222.534 -20.374 220.782 -21.824 219.043 C-22.555 218.138 -23.286 217.233 -24.039 216.301 C-26.929 212.786 -29.899 209.349 -32.887 205.918 C-38.372 199.619 -43.792 193.269 -49.173 186.881 C-55.239 179.683 -61.322 172.501 -67.449 165.355 C-67.943 164.779 -68.437 164.203 -68.945 163.609 C-71.543 160.58 -74.147 157.558 -76.762 154.543 C-77.295 153.925 -77.829 153.308 -78.379 152.672 C-79.389 151.504 -80.401 150.338 -81.416 149.174 C-83.864 146.338 -86.113 143.473 -88.234 140.383 C-88.986 139.363 -89.737 138.344 -90.512 137.293 C-91.172 137.293 -91.832 137.293 -92.512 137.293 C-93.773 138.739 -93.773 138.739 -95.199 140.773 C-95.728 141.518 -96.256 142.263 -96.801 143.031 C-97.365 143.839 -97.93 144.648 -98.512 145.48 C-99.699 147.153 -100.888 148.825 -102.078 150.496 C-102.665 151.32 -103.251 152.145 -103.856 152.994 C-105.991 155.959 -108.205 158.847 -110.449 161.73 C-113.957 166.246 -117.396 170.803 -120.785 175.409 C-122.015 177.075 -123.254 178.734 -124.502 180.386 C-129.537 187.094 -129.537 187.094 -131.34 190.918 C-133.154 194.435 -134.154 196.141 -137.512 198.293 C-145.389 199.872 -153.52 199.612 -161.512 199.293 C-160.833 195.521 -160.043 193.205 -157.762 190.105 C-157.445 189.668 -157.445 189.668 -155.84 187.453 C-155.072 186.41 -154.303 185.367 -153.512 184.293 C-140.811 166.905 -128.721 149.135 -116.762 131.23 C-116.082 130.213 -115.402 129.196 -114.702 128.148 C-114.067 127.194 -113.432 126.24 -112.777 125.258 C-112.218 124.419 -111.659 123.579 -111.083 122.715 C-109.499 120.274 -107.994 117.797 -106.512 115.293 C-116.382 100.211 -126.795 85.505 -137.533 71.031 C-141.403 65.813 -145.2 60.551 -148.944 55.241 C-151.015 52.323 -153.138 49.463 -155.348 46.648 C-155.814 46.054 -156.28 45.46 -156.761 44.847 C-157.656 43.714 -158.557 42.587 -159.466 41.465 C-162.512 37.619 -162.512 37.619 -162.512 34.293 C-143.852 31.472 -143.852 31.472 -137.29 35.737 C-133.14 39.81 -130.167 44.716 -127.164 49.663 C-124.398 54.065 -121.181 58.114 -118.012 62.23 C-112.337 69.785 -106.734 77.393 -101.166 85.027 C-98.079 89.242 -94.905 93.32 -91.512 97.293 C-85.692 91.012 -80.106 84.642 -74.727 77.977 C-71.847 74.487 -68.805 71.163 -65.758 67.82 C-63.45 65.223 -61.256 62.559 -59.074 59.855 C-55.998 56.052 -52.824 52.392 -49.512 48.793 C-45.492 44.421 -41.712 39.915 -37.98 35.297 C-34.041 30.503 -29.95 25.843 -25.875 21.164 C-22.012 16.727 -18.192 12.255 -14.382 7.772 C-13.101 6.271 -11.807 4.781 -10.512 3.293 C-10.121 2.746 -9.73 2.198 -9.327 1.635 C-6.469 -0.477 -3.411 -0.075 0 0 Z" />
    <path d="M0 0 C5.016 -0.722 10.057 -1.365 15 0 C19.286 3.392 22.023 7.488 25 12 C26.131 13.47 27.276 14.929 28.438 16.375 C28.975 17.076 29.513 17.777 30.066 18.5 C31.641 20.536 33.234 22.552 34.84 24.562 C35.09 24.877 35.09 24.877 36.356 26.467 C37.353 27.72 38.353 28.969 39.357 30.216 C41.407 32.799 42.949 34.846 44 38 C52.168 30.342 58.601 20.959 65.344 12.065 C66.397 10.68 67.458 9.3 68.528 7.926 C69.466 6.699 70.371 5.446 71.232 4.164 C72.406 2.508 72.406 2.508 75 0 C77.924 -0.455 79.948 -0.589 82.812 -0.375 C83.159 -0.361 83.159 -0.361 84.912 -0.293 C86.609 -0.223 88.305 -0.115 90 0 C87.621 3.639 85.184 7.131 82.438 10.5 C79.089 14.64 75.783 18.809 72.5 23 C69.235 27.168 65.949 31.317 62.625 35.438 C59.603 39.2 56.756 43.039 54 47 C55.372 49.962 56.965 52.389 59 54.938 C61.913 58.618 64.78 62.328 67.625 66.062 C72.658 72.638 77.877 79.058 83.117 85.469 C83.364 85.772 83.364 85.772 84.612 87.305 C85.858 88.827 87.12 90.336 88.383 91.844 C90 94 90 94 90 96 C77.269 97.661 77.269 97.661 72.422 94.113 C70.517 91.754 68.801 89.352 67.175 86.793 C65.412 84.103 63.457 81.568 61.511 79.008 C59.955 76.96 58.42 74.898 56.887 72.832 C53.819 68.727 50.61 64.756 47.328 60.82 C46 59 46 59 46 57 C42.029 60.811 38.588 64.865 35.188 69.188 C34.125 70.527 33.063 71.867 32 73.207 C31.487 73.856 30.974 74.505 30.445 75.174 C27.913 78.373 25.363 81.557 22.766 84.703 C21 87 21 87 19.484 89.609 C17.813 92.327 16.59 94.118 14 96 C8.883 96.757 4.127 96.535 -1 96 C1.285 91.98 3.941 88.361 6.812 84.75 C7.049 84.451 7.049 84.451 8.245 82.937 C13.326 76.536 18.539 70.245 23.742 63.945 C29.18 57.361 29.18 57.361 31.812 54.125 C32.115 53.755 32.115 53.755 33.645 51.883 C35 50 35 50 36 47 C35.142 45.369 35.142 45.369 33.746 43.586 C33.487 43.251 33.487 43.251 32.177 41.555 C31.603 40.836 31.029 40.116 30.438 39.375 C29.852 38.625 29.266 37.875 28.663 37.103 C23.873 31.005 18.939 25.025 13.984 19.062 C0 2.196 0 2.196 0 0 Z" transform="translate(370,394)"/>
  </g>
</svg>